# AST/ASF file generated using VICON BodyLanguage
# -----------------------------------------------
:version 1.10
:name VICON
:units
  mass 1.0
  length 0.45
  angle deg
:documentation
   .ast/.asf automatically generated from VICON data using
   VICON BodyBuilder and BodyLanguage model FoxedUp or BRILLIANT.MOD
:root
   order TX TY TZ RX RY RZ
   axis XYZ
   position 0 0 0  
   orientation 0 0 0 
:bonedata
  begin
     id 1 
     name lhipjoint
     direction 0.627412 -0.730575 0.26947 
     length 2.49821 
     axis 0 0 0  XYZ
  end
  begin
     id 2 
     name lfemur
     direction 0.34202 -0.939693 0  
     length 6.89165  
     axis 0 0 20  XYZ
    dof rx ry rz
    limits (-160.0 20.0)
           (-70.0 70.0)
           (-60.0 70.0)
  end
  begin
     id 3 
     name ltibia
     direction 0.34202 -0.939693 0   
     length 7.91287   
     axis 0 0 20   XYZ
    dof rx
    limits (-10.0 170.0)
  end
  begin
     id 4 
     name lfoot
     direction 0.0941675 -0.258723 0.96135   
     length 2.16919   
     axis -90 7.62852e-016 20   XYZ
    dof rx rz
    limits (-45.0 90.0)
           (-70.0 20.0)
  end
  begin
     id 5 
     name ltoes
     direction 1.5347e-011 -4.21941e-011 1   
     length 1.08535   
     axis -90 7.62852e-016 20   XYZ
    dof rx
    limits (-90.0 20.0)
  end
  begin
     id 6 
     name rhipjoint
     direction -0.614241 -0.740361 0.27308   
     length 2.46519  
     axis 0 0 0  XYZ 
  end
  begin
     id 7 
     name rfemur
     direction -0.34202 -0.939693 0   
     length 7.27512   
     axis 0 0 -20   XYZ
    dof rx ry rz
    limits (-160.0 20.0)
           (-70.0 70.0)
           (-70.0 60.0)
  end
  begin
     id 8 
     name rtibia
     direction -0.34202 -0.939693 0   
     length 7.89523   
     axis 0 0 -20   XYZ
    dof rx
    limits (-10.0 170.0)
 end
 begin
     id 9 
     name rfoot
     direction -0.0860444 -0.236405 0.967837   
     length 2.29534  
     axis -90 -7.62852e-016 -20   XYZ
    dof rx rz
    limits (-45.0 90.0)
           (-20.0 70.0)
  end
  begin
     id 10 
     name rtoes
     direction -1.53608e-011 -4.21861e-011 1   
     length 1.14915   
     axis -90 -7.62852e-016 -20   XYZ
    dof rx
    limits (-90.0 20.0)
  end
  begin
     id 11 
     name lowerback
     direction -0.00734074 0.997215 -0.0742143   
     length 2.13469   
     axis 0 0 0   XYZ
    dof rx ry rz
    limits (-20.0 45.0)
           (-30.0 30.0)
           (-30.0 30.0)
  end
  begin
     id 12 
     name upperback
     direction 0.0285728 0.99958 -0.00488656   
     length 2.13416   
     axis 0 0 0   XYZ
    dof rx ry rz
    limits (-20.0 45.0)
           (-30.0 30.0)
           (-30.0 30.0)
  end
  begin
     id 13 
     name thorax
     direction 0.0316844 0.999056 0.0297249   
     length 2.14463   
     axis 0 0 0   XYZ
    dof rx ry rz
    limits (-20.0 45.0)
           (-30.0 30.0)
           (-30.0 30.0)
  end
  begin
     id 14 
     name lowerneck
     direction -0.0281545 0.996802 0.0747864   
     length 1.79004   
     axis 0 0 0   XYZ
    dof rx ry rz
    limits (-20.0 45.0)
           (-30.0 30.0)
           (-30.0 30.0)
  end
  begin
     id 15 
     name upperneck
     direction -0.00100185 0.982732 -0.185031   
     length 1.79988   
     axis 0 0 0   XYZ
    dof rx ry rz
    limits (-20.0 45.0)
           (-30.0 30.0)
           (-30.0 30.0)
  end
  begin
     id 16
     name head
     direction 0.00403747 0.997539 -0.0700022  
     length 1.81696  
     axis 0 0 0   XYZ
    dof rx ry rz
    limits (-20.0 45.0)
           (-30.0 30.0)
           (-30.0 30.0)
  end
  begin
     id 17 
     name lclavicle
     direction 0.959882 0.242905 -0.140082  
     length 3.87755  
     axis 0 0 0   XYZ
    dof ry rz
    limits (-20.0 10.0)
           (0.0 20.0)
  end
  begin
     id 18 
     name lhumerus
     direction 1 -4.4895e-011 3.76166e-027   
     length 5.14601   
     axis 180 -30 -90   XYZ
    dof rx ry rz
    limits (-60.0 90.0)
           (-90.0 90.0)
           (-90.0 90.0)
  end
  begin
     id 19
     name lradius
     direction 1 -4.48966e-011 -3.24039e-027   
     length 3.64452   
     axis 180 -30 -90   XYZ
    dof rx
    limits (-10.0 170.0)
  end
  begin
     id 20
     name lwrist
     direction 1 -4.48999e-011 2.57119e-027   
     length 1.82226   
     axis -1.61769e-015 90 90   XYZ
    dof ry
    limits (-180.0 0.0)
 end
  begin
     id 21 
     name lhand
     direction 1 -4.48961e-011 5.13984e-027   
     length 0.56228   
     axis -3.27988e-015 90 90   XYZ
    dof rx rz
    limits (-90.0 90.0)
           (-45.0 45.0)
  end
  begin
     id 22 
     name lfingers
     direction 1 -4.48991e-011 1.02836e-026   
     length 0.453325   
     axis -6.5598e-015 90 90   XYZ
    dof rx
    limits (0.0 90.0)
  end
  begin
     id 23
     name lthumb
     direction 0.707107 -6.34956e-011 0.707107   
     length 0.650886   
     axis -90 45 2.19363e-014   XYZ
    dof rx rz
    limits (-45.0 45.0)
           (-45.0 45.0)
  end
  begin
     id 24 
     name rclavicle
     direction -0.929201 0.345171 -0.132073   
     length 3.55416  
     axis 0 0 0   XYZ 
    dof ry rz
    limits (-10.0 20.0)
           (-20.0 0.0)
  end
  begin
     id 25 
     name rhumerus
     direction -1 -4.48979e-011 4.53734e-027  
     length 5.33913   
     axis 180 30 90   XYZ
    dof rx ry rz
    limits (-90.0 60.0)
           (-90.0 90.0)
           (-90.0 90.0)
  end
  begin
     id 26 
     name rradius
     direction -1 -4.4896e-011 -2.24007e-027   
     length 3.56478   
     axis 180 30 90   XYZ
    dof rx
    limits (-10.0 170.0)
  end
  begin
     id 27 
     name rwrist
     direction -1 -4.48923e-011 2.56866e-027   
     length 1.78239   
     axis -1.61769e-015 -90 -90   XYZ
    dof ry
    limits (-180.0 0.0)
  end
  begin
     id 28
     name rhand
     direction -1 -4.48914e-011 5.13667e-027   
     length 0.857474   
     axis -3.27988e-015 -90 -90   XYZ
    dof rx rz
    limits (-90.0 90.0)
           (-45.0 45.0)
  end
  begin
     id 29
     name rfingers
     direction -1 -4.49112e-011 1.02998e-026   
     length 0.691318   
     axis -6.5598e-015 -90 -90   XYZ
    dof rx
    limits (0.0 90.0)
  end
  begin
     id 30
     name rthumb
     direction -0.707107 -6.34979e-011 0.707107   
     length 0.992598   
     axis -90 -45 -2.19363e-014   XYZ
    dof rx rz
    limits (-45.0 45.0)
           (-45.0 45.0)
  end
:hierarchy
  begin
    root lhipjoint rhipjoint lowerback
    lhipjoint lfemur
    lfemur ltibia
    ltibia lfoot
    lfoot ltoes
    rhipjoint rfemur
    rfemur rtibia
    rtibia rfoot
    rfoot rtoes
    lowerback upperback
    upperback thorax
    thorax lowerneck lclavicle rclavicle
    lowerneck upperneck
    upperneck head
    lclavicle lhumerus
    lhumerus lradius
    lradius lwrist
    lwrist lhand lthumb
    lhand lfingers
    rclavicle rhumerus
    rhumerus rradius
    rradius rwrist
    rwrist rhand rthumb
    rhand rfingers
  end

#!OML:ASF F:\VICON\USERDATA\INSTALL\Justin4\Justin4.ASF
:FULLY-SPECIFIED
:DEGREES
1218
root -2.37234 16.9262 9.30675 6.58839 -5.91052 -4.13026
lowerback 16.9993 -0.652298 -0.637316
upperback 2.45022 -0.828387 2.056
thorax -6.86174 -0.366375 2.7473
lowerneck -12.3159 0.721692 -5.88572
upperneck 13.0528 1.64009 2.82924
head 5.90264 0.722482 1.99796
rclavicle 1.07344e-014 3.97569e-016
rhumerus -5.07925 -7.48579 -71.6998
rradius 137.905
rwrist -6.15272
rhand -15.9949 18.6689
rfingers 7.12502
rthumb 10.2051 -11.0636
lclavicle 1.07344e-014 3.97569e-016
lhumerus 20.022 8.297 74.2513
lradius 130.178
lwrist 13.5434
lhand -8.72425 11.3017
lfingers 7.12502
lthumb 17.2119 40.5594
rfemur -10.9262 0.263644 30.9944
rtibia 53.4836
rfoot -15.9263 -7.39595
rtoes -11.9179
lfemur -47.1388 -3.22176 -5.91698
ltibia 49.1285
lfoot 5.44673 -8.45724
ltoes -21.9168
1219
root -2.43396 16.799 9.38816 6.86034 -6.72171 -4.28345
lowerback 16.1746 -0.291385 -0.368791
upperback 2.29349 -0.327542 1.79241
thorax -6.60703 -0.134389 2.18874
lowerneck -12.0027 0.763471 -6.15046
upperneck 13.0612 1.70935 2.93667
head 5.84568 0.749791 2.0779
rclavicle -2.59414e-014 2.16675e-014
rhumerus -4.05428 -7.57678 -72.0053
rradius 138.004
rwrist -6.02588
rhand -16.2374 18.9511
rfingers 7.12502
rthumb 9.97116 -10.7927
lclavicle -2.59414e-014 2.16675e-014
lhumerus 20.4787 9.16056 73.6978
lradius 130.308
lwrist 13.5423
lhand -8.81734 10.8702
lfingers 7.12502
lthumb 17.1223 40.1358
rfemur -8.04085 0.631979 31.2879
rtibia 49.6576
rfoot -19.3594 -7.94997
rtoes -12.2939
lfemur -47.6985 -3.77005 -5.63181
ltibia 49.4409
lfoot 3.9564 -7.76322
ltoes -22.7523
1220
root -2.49545 16.6885 9.45991 7.06205 -7.95389 -4.56565
lowerback 15.4251 0.246939 -0.0150333
upperback 2.22303 0.417746 1.52189
thorax -6.29572 0.215389 1.53726
lowerneck -11.7563 0.754916 -6.50138
upperneck 13.0325 1.73264 3.01961
head 5.79019 0.749505 2.16038
rclavicle -5.86415e-015 1.5704e-014
rhumerus -2.93552 -7.50994 -72.3028
rradius 138.132
rwrist -5.90458
rhand -16.6913 19.2785
rfingers 7.12502
rthumb 9.53318 -10.4859
lclavicle -5.86415e-015 1.5704e-014
lhumerus 20.93 10.0015 73.3511
lradius 130.542
lwrist 13.5117
lhand -8.60714 10.9966
lfingers 7.12502
lthumb 17.3246 40.2445
rfemur -5.46231 1.01933 31.6062
rtibia 46.2062
rfoot -22.2509 -9.45184
rtoes -14.0779
lfemur -47.7771 -3.86472 -5.13176
ltibia 50.7431
lfoot 2.39142 -5.11591
ltoes -22.4802
1221
root -2.54829 16.5764 9.52184 7.36095 -9.17798 -4.90122
lowerback 14.8594 0.766526 0.523002
upperback 2.09285 1.16582 1.21941
thorax -6.1258 0.564992 0.762983
lowerneck -11.8205 0.784736 -6.84855
upperneck 13.1309 1.81689 3.17523
head 5.82326 0.783952 2.27512
rclavicle 1.20265e-014 3.77691e-015
rhumerus -1.99403 -7.341 -72.4665
rradius 138.252
rwrist -5.63513
rhand -17.3313 20.0746
rfingers 7.12502
rthumb 8.91566 -9.71703
lclavicle 1.20265e-014 3.77691e-015
lhumerus 21.3015 10.8012 73.0686
lradius 130.556
lwrist 12.931
lhand -8.97348 9.38584
lfingers 7.12502
lthumb 16.972 38.6643
rfemur -3.55015 1.03727 31.8443
rtibia 43.542
rfoot -24.8796 -11.2269
rtoes -16.7531
lfemur -48.028 -3.67578 -4.64041
ltibia 52.4203
lfoot 0.683983 -2.91041
ltoes -23.7362
1222
root -2.59639 16.4779 9.58359 7.64611 -10.3264 -5.21726
lowerback 14.4073 1.17953 1.15345
upperback 1.97637 1.78245 0.875878
thorax -5.97607 0.849206 -0.0701406
lowerneck -12.1455 0.906485 -7.06505
upperneck 13.3528 2.03521 3.24121
head 5.93423 0.88191 2.35585
rclavicle -3.27001e-014 9.14409e-015
rhumerus -0.860174 -6.98232 -72.7926
rradius 138.339
rwrist -5.21141
rhand -17.7993 20.8718
rfingers 7.12502
rthumb 8.46407 -8.9386
lclavicle -3.27001e-014 9.14409e-015
lhumerus 21.5107 11.6618 72.5841
lradius 130.33
lwrist 12.2747
lhand -10.3901 6.07579
lfingers 7.12502
lthumb 15.608 35.4661
rfemur -2.21272 0.723766 31.9404
rtibia 41.8028
rfoot -26.754 -10.2013
rtoes -10.9445
lfemur -48.2191 -3.48392 -4.06012
ltibia 53.9744
lfoot -1.06058 -1.52595
ltoes -19.8379
1223
root -2.65207 16.3961 9.63954 7.7256 -11.6324 -5.3233
lowerback 14.3 1.66464 1.44124
upperback 1.80704 2.44303 0.490862
thorax -6.06177 1.15992 -0.764411
lowerneck -12.1486 1.04955 -7.14826
upperneck 13.4635 2.26041 3.13859
head 5.95844 0.97677 2.35665
rclavicle -1.0635e-014 -7.55382e-015
rhumerus 0.195613 -6.48031 -73.2341
rradius 138.624
rwrist -5.26697
rhand -17.1711 20.6788
rfingers 7.12502
rthumb 9.0702 -9.10619
lclavicle -1.0635e-014 -7.55382e-015
lhumerus 21.1417 12.6046 72.0806
lradius 130.758
lwrist 12.4295
lhand -10.4317 5.77966
lfingers 7.12502
lthumb 15.5679 35.1731
rfemur -1.35915 0.458781 31.8211
rtibia 41.0252
rfoot -28.2616 -9.21108
rtoes -6.09639
lfemur -48.0476 -3.48625 -3.36398
ltibia 54.9882
lfoot -2.95478 -1.4587
ltoes -25.7043
1224
root -2.72418 16.331 9.68599 7.67945 -13.0763 -5.00064
lowerback 14.3317 2.28499 0.995036
upperback 1.65537 3.1672 0.0738987
thorax -6.22492 1.51672 -1.09609
lowerneck -12.0023 1.14795 -7.29423
upperneck 13.3472 2.42752 3.01895
head 5.88843 1.04281 2.35198
rclavicle 3.19049e-014 -1.07344e-014
rhumerus 0.877251 -5.98525 -73.4565
rradius 139.232
rwrist -5.92693
rhand -16.1361 20.2694
rfingers 7.12502
rthumb 10.0689 -9.46967
lclavicle 3.19049e-014 -1.07344e-014
lhumerus 20.6504 13.6582 71.7743
lradius 131.531
lwrist 12.8428
lhand -9.28514 6.7434
lfingers 7.12502
lthumb 16.6719 36.0474
rfemur -1.14137 0.183193 31.3091
rtibia 41.1777
rfoot -28.3728 -9.34043
rtoes -3.41542
lfemur -47.5951 -3.92212 -2.68343
ltibia 55.2689
lfoot -3.89402 -1.04135
ltoes -29.5791
1225
root -2.81731 16.2832 9.72525 7.70015 -14.5063 -3.99715
lowerback 14.0266 3.00068 -0.412537
upperback 1.57995 3.85836 -0.4639
thorax -6.17615 1.8829 -0.99133
lowerneck -12.3552 1.20737 -7.53945
upperneck 13.5032 2.58065 3.03125
head 5.98673 1.10376 2.41527
rclavicle 2.04748e-014 -1.82882e-014
rhumerus 1.10813 -4.87102 -73.519
rradius 138.056
rwrist -1.20383
rhand -21.8948 24.5192
rfingers 7.12502
rthumb 4.51035 -5.41278
lclavicle 2.04748e-014 -1.82882e-014
lhumerus 20.6763 14.4375 71.6943
lradius 131.939
lwrist 13.1646
lhand -9.08069 6.29889
lfingers 7.12502
lthumb 16.8688 35.5862
rfemur -1.66933 -0.11309 30.1628
rtibia 41.9813
rfoot -28.8576 -10.937
rtoes -9.8879
lfemur -46.9094 -4.6003 -2.45264
ltibia 55.1199
lfoot -4.83016 -1.13978
ltoes -31.9239
1226
root -2.92553 16.275 9.75761 7.87893 -15.6067 -2.97676
lowerback 13.5685 3.62751 -1.88453
upperback 1.49133 4.43606 -1.00627
thorax -6.07999 2.19545 -0.823674
lowerneck -13.0174 1.25272 -7.78806
upperneck 14.0192 2.73053 3.13824
head 6.25041 1.16311 2.52046
rclavicle -4.9895e-014 9.14409e-015
rhumerus 0.974814 -4.50617 -73.5476
rradius 138.666
rwrist -1.12264
rhand -21.9935 24.7376
rfingers 7.12502
rthumb 4.41503 -5.19641
lclavicle -4.9895e-014 9.14409e-015
lhumerus 20.8272 14.8355 71.8425
lradius 132.141
lwrist 13.2973
lhand -9.40894 6.00288
lfingers 7.12502
lthumb 16.5528 35.3169
rfemur -2.64756 -0.500403 29.1215
rtibia 43.3273
rfoot -30.0524 -9.72839
rtoes -5.77681
lfemur -46.3032 -5.21699 -2.25877
ltibia 54.4714
lfoot -5.66726 -1.55418
ltoes -34.4452
1227
root -3.03133 16.2793 9.78786 8.01861 -16.2062 -2.69743
lowerback 13.2407 4.03435 -2.41978
upperback 1.55773 4.87922 -1.42038
thorax -5.83867 2.4203 -1.01604
lowerneck -13.3026 1.28002 -7.96652
upperneck 14.0592 2.80841 3.25926
head 6.30288 1.2016 2.5999
rclavicle 9.56154e-014 -4.05521e-014
rhumerus 0.564618 -4.32832 -73.6461
rradius 139.221
rwrist -0.752453
rhand -22.1888 25.2919
rfingers 7.12502
rthumb 4.22647 -4.64588
lclavicle 9.56154e-014 -4.05521e-014
lhumerus 20.8737 15.2043 72.0891
lradius 132.427
lwrist 13.4649
lhand -9.18666 6.8017
lfingers 7.12502
lthumb 16.7668 36.0977
rfemur -3.45009 -1.10619 28.8959
rtibia 44.8688
rfoot -29.7312 -8.63586
rtoes -5.37758
lfemur -45.5879 -5.8376 -1.42532
ltibia 53.6731
lfoot -6.21911 -2.13102
ltoes -36.0513
1228
root -3.13705 16.3027 9.82181 8.12391 -16.4066 -2.77562
lowerback 13.0759 4.29458 -2.39374
upperback 1.68519 5.20869 -1.83341
thorax -5.57315 2.57701 -1.50226
lowerneck -13.5286 1.26833 -7.96195
upperneck 13.8673 2.78371 3.4269
head 6.2783 1.20944 2.65096
rclavicle 7.07673e-014 -4.21423e-014
rhumerus 0.092482 -4.17275 -73.9741
rradius 139.587
rwrist -0.604749
rhand -22.1041 25.7921
rfingers 7.12502
rthumb 4.30825 -4.14405
lclavicle 7.07673e-014 -4.21423e-014
lhumerus 20.7137 15.4717 72.1939
lradius 132.694
lwrist 13.4559
lhand -8.68203 7.47188
lfingers 7.12502
lthumb 17.2525 36.7261
rfemur -4.23748 -1.99585 29.0171
rtibia 46.4984
rfoot -28.8722 -7.46213
rtoes -8.05107
lfemur -44.7141 -6.52758 -0.362191
ltibia 52.6873
lfoot -6.59399 -3.21498
ltoes -36.9397
1229
root -3.2406 16.3387 9.85624 8.29126 -16.1618 -3.00383
lowerback 13.0587 4.36327 -2.08664
upperback 1.73494 5.32199 -2.2024
thorax -5.44694 2.62362 -2.07331
lowerneck -13.8457 1.25382 -7.85293
upperneck 13.8598 2.7565 3.50347
head 6.33132 1.21011 2.66035
rclavicle 4.03533e-014 -1.66979e-014
rhumerus -0.709285 -3.95409 -74.3913
rradius 140.289
rwrist -1.70216
rhand -20.3764 24.9516
rfingers 7.12502
rthumb 5.97643 -4.94415
lclavicle 4.03533e-014 -1.66979e-014
lhumerus 20.0696 15.6969 72.1561
lradius 132.855
lwrist 13.0999
lhand -8.64193 7.10548
lfingers 7.12502
lthumb 17.2911 36.3563
rfemur -5.19391 -3.24468 29.2712
rtibia 48.0668
rfoot -27.1759 -5.67054
rtoes -9.20492
lfemur -44.0996 -7.22974 0.783819
ltibia 51.7151
lfoot -6.64363 -4.42245
ltoes -36.6952
1230
root -3.3461 16.3886 9.88601 8.46998 -15.5074 -3.3083
lowerback 13.0759 4.27746 -1.59461
upperback 1.73958 5.25939 -2.52328
thorax -5.3772 2.58177 -2.67133
lowerneck -13.6446 1.24971 -7.7257
upperneck 13.6418 2.72031 3.42565
head 6.23263 1.19665 2.60453
rclavicle -1.15693e-013 2.14687e-014
rhumerus -1.9172 -3.86449 -74.7009
rradius 141.603
rwrist -3.96706
rhand -16.5448 21.6171
rfingers 7.12502
rthumb 9.67456 -8.14075
lclavicle -1.15693e-013 2.14687e-014
lhumerus 19.1794 15.7395 72.2564
lradius 132.987
lwrist 13.0549
lhand -8.60862 6.85021
lfingers 7.12502
lthumb 17.3232 36.0982
rfemur -6.24183 -4.74135 29.5879
rtibia 49.6607
rfoot -25.071 -2.94594
rtoes -7.10032
lfemur -43.8411 -7.84659 1.88696
ltibia 50.5311
lfoot -5.65202 -5.42488
ltoes -35.6221
1231
root -3.46586 16.4632 9.90461 8.52194 -14.5977 -3.35384
lowerback 13.1283 4.18272 -1.42315
upperback 1.85512 5.14088 -2.83208
thorax -5.2433 2.51961 -3.06732
lowerneck -13.3762 1.19623 -7.65783
upperneck 13.3177 2.6111 3.4308
head 6.091 1.15347 2.5762
rclavicle 5.48646e-014 -3.49861e-014
rhumerus -3.20299 -3.64482 -74.8683
rradius 141.617
rwrist -2.80777
rhand -16.5318 21.3074
rfingers 7.12502
rthumb 9.68708 -8.4498
lclavicle 5.48646e-014 -3.49861e-014
lhumerus 18.5592 15.419 72.7384
lradius 132.906
lwrist 13.1943
lhand -8.67452 6.60073
lfingers 7.12502
lthumb 17.2597 35.8543
rfemur -7.34842 -6.24061 29.6763
rtibia 51.3268
rfoot -22.3774 0.00196526
rtoes -6.41129
lfemur -43.3437 -8.09026 2.3568
ltibia 49.2431
lfoot -4.88893 -6.20413
ltoes -39.4443
1232
root -3.59743 16.556 9.91397 8.35447 -13.4242 -3.08617
lowerback 13.3512 4.03958 -1.69034
upperback 2.14868 4.89753 -3.06551
thorax -5.06635 2.40441 -3.12411
lowerneck -13.52 1.11164 -7.81894
upperneck 13.257 2.50602 3.6549
head 6.09658 1.11478 2.66632
rclavicle 6.99722e-014 -2.46493e-014
rhumerus -4.05835 -3.44346 -74.8477
rradius 141.558
rwrist -2.41481
rhand -16.4837 21.4253
rfingers 7.12502
rthumb 9.73352 -8.32981
lclavicle 6.99722e-014 -2.46493e-014
lhumerus 18.0479 15.1892 73.4707
lradius 132.802
lwrist 13.4175
lhand -8.61962 6.85547
lfingers 7.12502
lthumb 17.3126 36.1044
rfemur -8.49612 -7.79912 29.443
rtibia 53.0615
rfoot -19.1469 3.17257
rtoes -6.94908
lfemur -42.7079 -8.56639 2.54451
ltibia 47.5325
lfoot -3.39858 -7.17859
ltoes -39.6273
